<svg xmlns="http://www.w3.org/2000/svg" width="128" height="128" viewBox="0 0 128 128">
  <defs>
    <linearGradient id="grad1" x1="0%" y1="0%" x2="100%" y2="100%">
      <stop offset="0%" style="stop-color:#64c3d1;stop-opacity:1" />
      <stop offset="100%" style="stop-color:#4aaab8;stop-opacity:1" />
    </linearGradient>
  </defs>
  <circle cx="64" cy="64" r="60" fill="url(#grad1)" />
  <circle cx="64" cy="64" r="50" fill="white" stroke="#e0e4e8" stroke-width="1"/>
  <circle cx="64" cy="64" r="4" fill="#64c3d1"/>
  
  <!-- Clock hands -->
  <line x1="64" y1="64" x2="64" y2="34" stroke="#64c3d1" stroke-width="4" stroke-linecap="round"/>
  <line x1="64" y1="64" x2="84" y2="64" stroke="#4aaab8" stroke-width="4" stroke-linecap="round"/>
  
  <!-- Hour markers -->
  <line x1="64" y1="24" x2="64" y2="28" stroke="#333" stroke-width="2"/>
  <line x1="104" y1="64" x2="100" y2="64" stroke="#333" stroke-width="2"/>
  <line x1="64" y1="104" x2="64" y2="100" stroke="#333" stroke-width="2"/>
  <line x1="24" y1="64" x2="28" y2="64" stroke="#333" stroke-width="2"/>
  
  <line x1="84" y1="30" x2="81" y2="33" stroke="#333" stroke-width="2"/>
  <line x1="98" y1="44" x2="95" y2="47" stroke="#333" stroke-width="2"/>
  <line x1="98" y1="84" x2="95" y2="81" stroke="#333" stroke-width="2"/>
  <line x1="84" y1="98" x2="81" y2="95" stroke="#333" stroke-width="2"/>
  <line x1="44" y1="98" x2="47" y2="95" stroke="#333" stroke-width="2"/>
  <line x1="30" y1="84" x2="33" y2="81" stroke="#333" stroke-width="2"/>
  <line x1="30" y1="44" x2="33" y2="47" stroke="#333" stroke-width="2"/>
  <line x1="44" y1="30" x2="47" y2="33" stroke="#333" stroke-width="2"/>
</svg> 